<svg width="16" height="16" viewBox="0 0 16 16" fill="none" xmlns="http://www.w3.org/2000/svg">
<g id="Apps 1">
<path id="Vector" d="M2.66663 5.33366H5.33329V2.66699L2.66663 2.66699L2.66663 5.33366ZM6.66663 13.3337H9.33329L9.33329 10.667H6.66663L6.66663 13.3337ZM2.66663 13.3337H5.33329L5.33329 10.667H2.66663L2.66663 13.3337ZM2.66663 9.33366H5.33329L5.33329 6.66699L2.66663 6.66699L2.66663 9.33366ZM6.66663 9.33366L9.33329 9.33366L9.33329 6.66699L6.66663 6.66699L6.66663 9.33366ZM10.6666 2.66699V5.33366L13.3333 5.33366V2.66699L10.6666 2.66699ZM6.66663 5.33366L9.33329 5.33366V2.66699L6.66663 2.66699V5.33366ZM10.6666 9.33366L13.3333 9.33366V6.66699L10.6666 6.66699L10.6666 9.33366ZM10.6666 13.3337H13.3333V10.667H10.6666L10.6666 13.3337Z" fill="white"/>
</g>
</svg>
